<svg xmlns="http://www.w3.org/2000/svg" version="1.1" xmlns:xlink="http://www.w3.org/1999/xlink" width="512" height="512" x="0" y="0" viewBox="0 0 512 512" style="enable-background:new 0 0 512 512" xml:space="preserve" class=""><g><g data-name="Layer 2"><g data-name="Layer 1"><circle cx="256" cy="256" r="256" fill="#3737bc" opacity="1" data-original="#7f7fdd" class=""></circle><path fill="#ffffff" d="M355.55 306.07a73.67 73.67 0 0 1-11.71 40.85q-11.7 18.12-34.26 28.37t-53.49 10.25q-37.09 0-61.19-14a81.55 81.55 0 0 1-27.77-26.92q-10.68-16.83-10.68-32.73a22.19 22.19 0 0 1 22.73-22.38 19.35 19.35 0 0 1 13.59 5.12q5.55 5.13 9.48 15.21a101.84 101.84 0 0 0 10.34 20 41.91 41.91 0 0 0 15.64 13.24q10.08 5.22 26.49 5.22 22.56 0 36.66-10.52t14.1-26.23q0-12.46-7.61-20.25a49.15 49.15 0 0 0-19.65-11.88q-12-4.1-32.22-8.71-27-6.33-45.2-14.78t-28.88-23.08q-10.68-14.61-10.68-36.31a62.4 62.4 0 0 1 11.28-36.75q11.28-16 32.64-24.69t50.24-8.63q23.07 0 39.91 5.72t27.94 15.21q11.1 9.5 16.23 19.91a45.9 45.9 0 0 1 5.13 20.34A24 24 0 0 1 338.2 204a20.41 20.41 0 0 1-16 7.26q-8.72 0-13.24-4.35t-9.83-14.27q-6.84-14.19-16.4-22.13T252 162.52q-19.65 0-31.7 8.63t-12.05 20.76a21 21 0 0 0 4.11 13 34.44 34.44 0 0 0 11.27 9.4 76.13 76.13 0 0 0 14.53 6.15q7.35 2.24 24.27 6.5a381.46 381.46 0 0 1 38.36 10.93A116.73 116.73 0 0 1 330 252.41 59.77 59.77 0 0 1 348.8 274q6.75 13.11 6.75 32.07z" data-name="S" opacity="1" data-original="#ffffff" class=""></path></g></g></g></svg>