<svg width="226" height="134" viewBox="0 0 226 134" fill="none" xmlns="http://www.w3.org/2000/svg">
<path d="M77.562 35.918C78.878 35.918 80.006 36.388 80.946 37.328C81.886 38.08 82.356 39.208 82.356 40.618C82.356 41.934 81.792 43.062 80.852 44.002C79.912 44.848 78.878 45.318 77.562 45.318C76.152 45.318 75.024 44.848 74.178 44.002C73.238 43.062 72.768 41.934 72.768 40.618C72.768 39.208 73.238 38.08 74.178 37.328C75.024 36.388 76.152 35.918 77.562 35.918ZM74.742 53.402H80.382V102H74.742V53.402ZM106.805 37.704V53.402H119.495V58.29H106.805V91.19C106.805 93.258 107.181 94.856 107.933 95.796C108.685 96.642 110.095 97.112 112.163 97.112H118.273V102H111.411C107.651 102 104.925 100.966 103.327 99.086C101.823 97.394 101.165 94.762 101.165 91.19V58.29H90.8248V53.402H101.165V40.054L106.805 37.704ZM148.596 52.086C155.364 52.086 160.44 53.872 163.73 57.632C166.55 60.734 168.054 65.058 168.054 70.698V102H162.696V92.694C160.722 95.514 158.09 97.958 154.894 99.838C150.946 102.094 146.716 103.316 142.11 103.316C137.41 103.316 133.556 102.094 130.736 99.744C127.634 97.3 126.13 94.01 126.13 90.062C126.13 84.422 128.386 80.286 132.992 77.654C136.94 75.116 142.674 73.8 150.006 73.8L162.414 73.612V70.698C162.414 61.486 157.714 56.88 148.314 56.88C144.366 56.88 141.17 57.632 138.632 59.324C135.812 61.11 134.026 63.648 133.274 67.032L127.728 66.656C128.668 61.768 131.112 58.008 135.06 55.564C138.538 53.214 143.05 52.086 148.596 52.086ZM162.414 78.03L150.288 78.218C137.974 78.312 131.864 82.26 131.864 89.968C131.864 92.6 132.898 94.668 134.966 96.266C137.034 97.864 139.854 98.71 143.238 98.71C148.126 98.71 152.638 97.018 156.586 93.634C160.44 90.438 162.414 86.866 162.414 83.106V78.03ZM201.307 52.086C213.339 52.086 219.355 58.76 219.355 72.108V102H213.715V72.484C213.715 62.144 209.109 56.974 199.897 56.974C195.949 56.974 192.753 58.384 190.121 61.204C187.301 64.024 185.797 67.878 185.515 72.672V102H179.875V53.402H185.515V61.392C187.207 58.478 189.369 56.222 192.095 54.53C194.821 52.838 197.923 52.086 201.307 52.086Z" fill="black"/>
<path d="M63.945 43.305H47.04L34.545 102H11.865L24.36 43.305H7.665L9.555 35.325H65.73L63.945 43.305Z" fill="black"/>
</svg>
